<?xml version="1.0" encoding="UTF-8"?>
<svg id="Layer_1" xmlns="http://www.w3.org/2000/svg" version="1.1" viewBox="0 0 535.3 785.7">
  <!-- Generator: Adobe Illustrator 30.4.0, SVG Export Plug-In . SVG Version: 2.1.4 Build 226)  -->
  <defs>
    <style>
      .st0 {
        fill: #231f20;
        stroke: #231f20;
        stroke-miterlimit: 10;
        stroke-width: 2px;
      }
    </style>
  </defs>
  <path class="st0" d="M449.4,417.1c-65.5,37.9-53.4,109.3-19,162.9l37.4,58.5c12.7,19.8,19.3,41.9,16.6,65.3-3.1,26.5-23.1,47.6-50.2,48.4-22.4.6-40.7-17.6-42.4-40.4-4.6-61.6,36.2-58.4-26-213.6-2.8-6.9-13.2-13.6-19.1-14.1-23.9-1.9-32.6,38.3-28.2,62.5,6.7,36.9-3.8,69.5-28.7,96.4-38,40.9-95.9,55.7-147.4,31.3-47.4-22.4-77-81.5-82.9-131.5l-15.7-132.6c-3.9-33.3,9.1-66.6,24.7-95.7,19.8-37,34-72.6,47.5-112.2,14.8-43.5,39.4-82.1,72.9-111.9,74.8-66.8,189.6-51.2,241.3,34.8,28.6,47.5,27.3,110-6.9,153.3-17.3,21.9-48.4,27.6-69.4,11.8-41.7-31.2-14.7-84.7-21-119.7-2.8-15.3-11.5-29.3-21.9-35.5-38.5-23.2-81.9,16-103.1,52.3-46.1,78.9-71.9,168.1-75.6,259.8-1.8,42.9,8.7,84,33.7,116.8,11.6,15.1,26.8,24.6,43.7,26.3,18.1,1.8,34-6.5,47.8-19.3,18.1-16.8,26.7-40,35.4-63.3,6.2-16.8,10.7-33.7.5-49.9-11.3-18-19.8,8.1-36.4-.3-4.2-2.1-9.1-9.3-10.3-15.7-2.1-11,4.4-22,11.6-28,7.7-6.3,21.1-10.1,30.9-7.3,32.9,9.3,63-2.5,80.6-32,16.6-27.9,48-63.9,82.2-48.7,13.2,5.9,23.9,17.4,25.9,34.6,2.7,22-7.1,44.3-28.3,56.6h0Z"/>
</svg>