<?xml version="1.0" encoding="UTF-8"?>
<svg id="Layer_1" data-name="Layer 1" xmlns="http://www.w3.org/2000/svg" viewBox="0 0 2000 455.23">
  <defs>
    <style>
      .cls-1 {
        fill: #231f20;
        stroke: #231f20;
        stroke-miterlimit: 10;
      }
    </style>
  </defs>
  <path class="cls-1" d="M544.44,351.95c-11.13-6.07-18.43-15.8-27.05-24.44l-20.48-20.53c-12.39-12.42-21.01-28.5-27.58-44.69-7.1-17.49-6.23-35.73,1.16-52.58l11.64-26.56c5.55-12.66,10.86-24.86,20-35.13,19.42-21.84,49.74-27.54,75.55-13.82,30.45,16.19,45.66,51.44,53.09,83.77,4.56,19.84,7.84,39.49,6.14,59.75-2.17,25.84-12.81,49.41-31.65,66.39-17.17,15.48-39.72,19.34-60.81,7.83ZM535.18,295.19c17.18-18.86,1.66-39.38,29.93-65.25,7.16-6.55,14.36-13.73,17.61-23.31,8.19-24.21-7.51-51.13-32.89-55.9-14.36-2.7-29.77,4.45-37.33,16.39-14.5,22.89,4.32,43.1-13.76,65.88-5.13,6.46-9.94,14.7-10.74,23.22-1.47,15.7,5.97,29.78,17.02,40.12,8.8,8.23,21.51,8.35,30.16-1.14Z"/>
  <path class="cls-1" d="M1547.7,282.81c-6.46-15.01.3-41.28,13.26-42.45,11.71-1.06,12.16,13.28,27.74,7.04,14.3-5.73,22.97-21.4,19.31-36.24s-16.18-23.51-31.21-23.04c-11.45.36-22.77,3.2-30.12,12.06-4.75,5.73-5.12,12.75-2.04,18.98,3.83,7.76,1.12,14.66-2.31,21.58-10.07,20.25-12.49,41.9-7.21,63.71,4.48,18.53,10.24,42.22-4.64,56.1-8.2,7.66-20.22,7.53-27.73-1.06-11.66-13.33-5.12-30.2,2.36-44.48,16-30.54,21.92-47.31,11.91-81.88-5.85-20.19-3.31-39.34,8.38-56.53,17.78-26.13,49.18-37.51,79.56-26.3,17.87,6.59,32.94,20.12,40.98,37.9,14.27,31.55,4.08,82.51-35.89,88.41-23.49,3.46-28.19-16.33-38.76-14.31-7.65,1.46-12.78,18-2.3,33.98,22.65,34.53,57.54,29.47,91.01,63.36,13.91,14.08,26.3,37.51,12.17,53.72-4.28,4.91-12.12,8.25-19.99,7.63-14.09-1.11-25.38-10.53-31.71-22.93-12.15-23.79-13.77-31.84-35.59-50.13-9.26-7.77-16.21-16.42-21-27.56l-16.15-37.54Z"/>
  <path class="cls-1" d="M1907.03,354.37c-9.61,7.08-22.23,5.21-31.07-1.14-20.37-14.63-15.71-35.63-18.64-54.39-2.68-17.16-12.44-32.15-24.56-44.07-6.48-6.37-16.19-5.04-21.79,1.76-14.46,17.57-16.72,40.55-8.68,61.86,6.12,16.24,3.79,33.69-8.62,45.79-8.86,8.64-21.24,10.41-31.5,5.02-10.91-5.73-16.55-17.12-14.21-30.04,3.57-19.69,21.77-48.95,34.78-64.88,16.2-19.83,28.97-36.87,15.36-61.65-13.33-24.25-35.17-32.09-50.89-52.72-8.53-11.19-12.77-24.69-9.96-38.37,3.46-16.82,18.15-28.48,35.09-26.64,8.54.92,15.79,5.22,19.71,10.78,12.67,17.97-3.68,35.65-5.09,48.47-2.08,18.95,8.05,38.23,22.4,49.28,8.31,6.4,18.15,5.42,24.83-1.86,14.62-15.91,29.75-38.87,28.43-61.54-1.35-23.22,10.38-44.7,33.1-43.95,8.5.28,17.87,4.2,22.67,12.82,7.97,14.32,3.67,31.44-7.93,42.51-6.81,6.49-14.18,11.33-22.49,15.92-19.65,10.85-35.76,26.33-44.58,47.04-4.21,9.88-4.92,20.14-.49,30.37,8.33,19.24,23.87,35.96,43.2,44.56,9.56,4.25,19.07,6.94,26.24,15.01,12.78,14.41,10.89,38.12-5.3,50.05Z"/>
  <path class="cls-1" d="M1697.04,338.72c-10.31,2.62-19.92-4.51-25.21-12.6-13.93-21.3-6.87-49.1,1.09-72.26,6.45-18.77,11.83-37.63,10.96-57.81-1.51-35.25-27.59-58.44-14-88.23,3.22-7.05,9.68-11.61,16.23-11.98,7.57-.42,13.95,3.5,18.11,10.27,15.9,25.87-7.03,52.85-6.65,78.59.37,24.35,8,46.94,17.11,69.12,7.78,18.94,10.52,38.75,5.22,58.46-3.1,11.53-10.08,23.2-22.87,26.45Z"/>
  <path class="cls-1" d="M1449.2,176.98c4.15,29.6,15.95,43.91,21.72,71.21,3.3,15.61-.49,39.01-16.25,39.83-19.03,1-26.78-24.35-25.85-40.82,1.86-32.86,10.19-58.73,2.23-89.5-3.53-13.64-14.93-23.91-29.59-22.44l-32.98,3.31c-18.41,1.85-39.4-6.1-43.14-26.22-3.43-18.48,6.78-37.96,24.75-44.61,12.41-4.59,25.54-.32,35.35,7.88,28.43,23.75,50.42,29.03,85.4,39.67,19.32,5.88,46.01,13.61,45.8,38.54-.06,6.78-4.18,12.83-8.64,15.22-6.6,3.54-13.91,2.29-19.86-2.11-11.43-8.45-12.65-23.99-24.5-24.68-13.66-.8-16.1,23.04-14.46,34.71Z"/>
  <path class="cls-1" d="M1336.72,281.74c-10.54-22.28-31.46-49.09-57.99-42.09-8.82,2.33-16.98,9.25-21.32,19.41-11.79,27.56,4.07,49.49,18.32,70.82,8.55,12.79,14.13,29.83,3.62,42.18-12.06,14.17-38.82,11.78-52.2-2.33-8.66-9.14-11.53-21.59-9.24-34.24,4.01-22.22,7.44-43.72,7.01-66.58-1.05-54.74-20.01-88.5-22-135.38-1.13-26.64,16.91-55.79,45.36-55.17,14.96.33,27.86,7.9,37.16,19.26,7.12,8.7,13.13,18.11,17.65,28.67l31.27,73.23c11.79,27.61,26.3,52.77,45.81,75.58l33.06,38.64c24.62,28.77,27.16,70.43,5.72,101.63-6.31,9.19-16.14,14.63-26.08,15.36-24.57,1.81-39.95-22.03-40.4-47.44l-.55-31.24c-.43-24.44-4.83-48.4-15.19-70.29ZM1269.57,225.96c16.47-.08,32.6-10.12,33.39-27.44.74-15.99-8.36-32.01-20.36-41.27-11.86-9.16-26.62-8.73-36,2.86-8.51,10.5-12.51,24.67-10.89,38.1,2.1,17.42,15.81,27.85,33.86,27.76Z"/>
  <path class="cls-1" d="M1046.32,221.63c-20.67,1.63-25.55,32.37-18.12,52.66l13.34,36.45c9.63,26.3,13.12,55.74-1.86,80.43-12.17,20.07-36.91,26.4-56.85,14.04-11.05-6.85-15.94-19.87-11.76-32.51,6.75-20.41,20.13-29.37,22.06-57.64,2.32-33.91-8.45-45.75-1.01-92.24l6.19-38.67c2.9-18.13,13.68-44.92,35.14-42.48,7.24.82,13.94,5.13,18.17,12.1,13.81,22.73,9.04,44.43,27.55,58.1,5.27,3.89,11.78,3.66,17.04-.31,21.38-16.12,8.79-46.97,33.46-70.12,7.59-7.12,18.28-10.28,28.27-7.29,29.14,8.75,27.86,46.23,19.74,69.51l-9.92,28.45c-7.45,21.37-7.9,43.93,1.96,64.56l13.98,29.26c8.32,17.42.55,38.3-17.15,45.12-14.28,5.5-28.56.71-36.28-12.4-12.02-20.43-2.06-44.37,5.94-64.97,7.5-19.3,15.64-50-.57-66.65-6.05-6.22-14.9-7.12-22.03-1.92-12.64,9.24-8.52,19.99-16.77,34.26-2.41,4.17-7.32,7.16-11.5,7.05-13.71-.37-15.06-15.3-17.21-25.85s-10.51-19.84-21.84-18.95Z"/>
  <path class="cls-1" d="M763.31,170.63c12.57-6.21,25.46-.37,30.7,11.99,4.04,9.53,3.42,20.5-.67,30.36-17.74,42.85-43.85,57.12-45.11,121.16l-.76,38.37c-.21,10.59-4.26,29.1-15.6,31.27-5.41,1.04-11.25-.61-15.17-4.67-22.82-23.62-29.89-76.15-32.49-108.21l-3.72-45.97c-1.9-23.47-11.62-43.91-27.97-60.39s-26.51-35.82-18.01-59c11.52-31.45,51.15-57.99,69.8-40.58,13.06,12.2,1.43,33.34-7.29,45.45-22.71,31.52-15.4,57.59-6.48,91.54,6.51,24.77,7.75,49.51,7.99,75.07.13,13.74,4.99,52.24,22.03,54.49,14.98,1.97,18.62-30.82,18.31-41.12l-1.09-36.31c-.86-28.58-4.27-59.39,8.91-86.04,3.63-7.33,8.98-13.63,16.64-17.42Z"/>
  <path class="cls-1" d="M816.59,282.14c1.38,9.57,7.66,16.61,13.9,19.76,19.77,9.97,33.16-8.12,43.07-8.68,12.39-.7,24.04,1.39,35.86-1.12l23.43-4.97c19.7-4.18,37.14,18.06,32.78,37.91-3.75,17.06-18.47,27.63-35.14,30.06-21.44,3.13-41.92-9.44-79.74-10.43-20.38-.53-38.98-9.74-50.23-26.59-7.32-10.97-8.79-24.21-5.6-37.09,5.82-23.51,24.45-40.53,25.19-65.73.27-9.04-1.92-18.22-3.55-27.08-10.8-58.58,36.12-107.37,89.27-119.83,27.09-6.35,52.85,5.72,65.9,29.68,9.5,17.43,10.41,36.73,1.94,54.93-8.71,18.71-30.33,26.27-49.39,18.33-7.11-2.96-13.27-6.53-18.78-12.08-7.18-7.24-16.08-13.21-26.78-13.56-19.25-.62-36.26,12.12-41.99,30.13-3.25,10.22-1.4,20.57,5.29,28.24,16.44,18.86,34.15,5.26,46.93,4.23,15.48-1.25,26.44,11.44,24.74,26.28-1.13,9.85-7.94,18.35-18.29,18.89-20.48,1.06-23.22-23.51-41.78-22.29-9.4.62-16.14,6.85-22.48,13.18-9.88,9.85-16.71,22.92-14.56,37.81Z"/>
  <path class="cls-1" d="M281.64,256.6c-31.99,18.5-26.08,53.4-9.31,79.62l18.3,28.61c6.19,9.68,9.43,20.47,8.09,31.93-1.51,12.94-11.28,23.28-24.53,23.63-10.97.29-19.9-8.59-20.74-19.72-2.26-30.1,17.67-28.52-12.73-104.38-1.35-3.37-6.45-6.64-9.35-6.87-11.7-.93-15.95,18.73-13.79,30.54,3.29,18.01-1.88,33.98-14.04,47.1-18.56,20.01-46.85,27.23-72.03,15.32-23.16-10.96-37.63-39.85-40.51-64.29l-7.66-64.81c-1.92-16.26,4.46-32.56,12.06-46.76,9.68-18.09,16.64-35.5,23.22-54.82,7.25-21.27,19.27-40.1,35.61-54.69,36.56-32.66,92.66-25,117.93,17.01,13.97,23.23,13.35,53.75-3.37,74.91-8.45,10.7-23.64,13.49-33.92,5.79-20.39-15.27-7.18-41.37-10.28-58.48-1.35-7.47-5.64-14.31-10.72-17.37-18.83-11.35-40.02,7.84-50.38,25.54-22.55,38.54-35.12,82.14-36.96,126.96-.86,20.95,4.24,41.05,16.49,57.06,5.66,7.4,13.09,12.04,21.34,12.86,8.83.88,16.62-3.19,23.36-9.44,8.87-8.23,13.06-19.53,17.3-30.94,3.05-8.19,5.21-16.48.24-24.37-5.52-8.78-9.67,3.94-17.81-.13-2.06-1.03-4.43-4.55-5.01-7.66-1.01-5.4,2.13-10.76,5.69-13.67,3.77-3.09,10.31-4.93,15.12-3.57,16.06,4.56,30.8-1.21,39.38-15.63,8.1-13.62,23.44-31.22,40.18-23.82,6.47,2.86,11.66,8.5,12.68,16.93,1.3,10.77-3.46,21.65-13.83,27.65Z"/>
  <path class="cls-1" d="M417.93,151.4c-13.34-11.37-44.57-10.13-60.11-4.69-10.58,3.7-16.51,14.76-12.62,25.64.58,1.61,3.31,4.44,4.86,5.02,6.02,2.23,13.42-8.02,20.17-.36,2.28,2.58,2.7,7.46,1.52,10.99-3.32,9.98-13.32,5.56-19.85,19.16-10.96,22.8-4.51,48.84,5.05,71.09,8.58,19.99,15.17,44.25,1.48,63.27-6.12,8.5-16.3,11.93-25.91,8.27-22.2-8.43-26.84-37.89-19.51-57.55l9.35-25.11c27.77-74.58-19.31-73.38-8.02-113.93,9.02-32.41,37.18-60.92,72.43-54.31,21.6,4.05,41.17,14.95,55.06,31.78,21.51,26.06,19.25,63.39-4.53,86.41-10.59,10.25-22.69,11.37-36.75,10.61-6.89-.37-8.76,11.35-5.61,16.17l16.32,25.02c40.28,61.74,65.73,41.06,89.17,67.94,8.05,9.23,11.07,20.88,6.61,32.39-3.86,9.98-13.17,17.87-25.3,19.26-12.44,1.42-24.69-2.16-35.35-9.18-20.65-13.6-33.26-35.46-35.61-60.31-2.57-27.21-14.91-51.27-36.1-68.67-11.21-9.21-20.91-25.19-14.15-37.94,2.99-5.63,9.18-6.36,14.09-2.76,2.73,2,7.21,5.13,10.15,5.91,13.41,3.58,24.8-2.5,33.99-11.47,14.84-14.47,15.96-38.31-.84-52.63Z"/>
</svg>