<?xml version="1.0" encoding="UTF-8"?>
<svg id="Layer_1" data-name="Layer 1" xmlns="http://www.w3.org/2000/svg" viewBox="0 0 90 90">
  <defs>
    <style>
      .cls-1, .cls-2 {
        fill: #231f20;
      }

      .cls-2 {
        stroke: #000;
        stroke-miterlimit: 10;
        stroke-width: .7px;
      }
    </style>
  </defs>
  <g id="SPLINE-2">
    <path class="cls-1" d="M45,60.1c-.7-.2-1.3-.5-2-.8-7-2.7-9.3-4.5-10.6-5.7-1.5-1.3-1.9-1.9-2-2.6s0-1.5.2-2.5.5-2.3,1.5-3.2,2.7-1.5,4.1-2.2,2.6-1.7,2.6-2.6-1.2-1.9-2.3-2.8c-.6-.5-1.1-.9-1.5-1.5s-.5-1.2-.2-2.1,1-2,2.5-2.8c1.4-.8,3.6-1.4,6.8-1.5h.9c1,0,0,0,.9,0,3.2.1,5.4.7,6.8,1.5,1.5.9,2.2,1.9,2.5,2.8s0,1.5-.2,2.1-.9,1-1.5,1.5c-1.1.9-2.3,1.9-2.3,2.8s1.2,1.9,2.6,2.6,3.1,1.3,4.1,2.2,1.3,2.2,1.5,3.2.3,1.8.2,2.5-.5,1.3-2,2.6c-1.4,1.2-3.7,3-10.6,5.7-.7.3-1.3.5-2,.8h0Z"/>
  </g>
  <rect class="cls-2" x="43.7" y="58.9" width="2.9" height="31.1"/>
</svg>